<svg preserveAspectRatio="none" overflow="visible" style="display: block;" width="12.8699" height="17.0938" viewBox="0 0 12.8699 17.0938" fill="none" xmlns="http://www.w3.org/2000/svg">
<g id="Group">
<path id="Vector" d="M2.58107 15.5491C1.79648 14.6575 1.01191 13.7303 0.512611 12.6247C0.0133394 11.4478 -0.129327 10.0927 0.120328 8.80877C0.369983 7.52491 0.940564 6.31235 1.76084 5.27814C1.68952 6.16972 2.01049 7.09695 2.61675 7.77455C2.26011 6.06273 2.83073 4.20825 3.97193 2.85306C5.11314 1.49788 6.68233 0.60626 8.32283 0C7.50261 0.855912 7.39558 2.21109 7.71657 3.35233C8.03755 4.49354 8.71513 5.49211 9.32139 6.52633C9.92765 7.56054 10.4983 8.63043 10.5339 9.80728C10.8549 9.20105 11.2116 8.59476 11.4255 7.91718C11.6395 7.23957 11.7465 6.52633 11.5682 5.84872C12.2101 6.63332 12.5667 7.41788 12.7451 8.41645C12.9233 9.41504 12.8877 10.4492 12.7807 11.4478C12.6381 12.5534 12.3528 13.6946 11.7465 14.6218C11.0332 15.7273 9.89204 16.5119 8.64381 16.9399C6.43268 17.3323 4.25723 17.0113 2.58107 15.5491Z" fill="#F3705A"/>
<path id="Vector_2" d="M5.29374 16.8677C8.21806 18.009 11.1068 14.5497 9.50199 11.8749C9.50199 11.8393 9.46628 11.8393 9.46628 11.8037C9.60892 13.2658 9.25233 14.3357 8.57465 14.942C8.93134 14.0861 8.68168 13.0875 8.25376 12.2316C7.82575 11.4114 7.2195 10.6625 6.75588 9.87789C6.29225 9.05761 5.93564 8.13035 6.14962 7.20312C5.2937 7.84505 4.68744 8.80796 4.43779 9.84218C4.18814 10.8764 4.3308 12.0177 4.79443 12.9805C4.25949 12.5882 3.86721 11.9463 3.83153 11.2687C3.26091 11.9463 2.90431 12.8379 2.93995 13.7294C2.93998 15.1203 4.04552 16.3685 5.29374 16.8677Z" fill="#FFD15C"/>
</g>
</svg>
